####
#
# OBJ File Generated by Meshlab
#
####
# Object concave_convex.obj
#
# Vertices: 104
# Faces: 204
#
####
vn -1.603693 -1.570451 -1.591741
v -0.000000 10.000000 0.000000
vn -1.537733 1.570447 -1.549746
v -0.000000 12.000000 0.000000
vn -0.131527 -3.138148 -3.183479
v 0.837513 9.982456 0.000000
vn 0.132199 3.138113 -3.099489
v 0.925975 11.980505 0.000000
vn -0.262822 -3.129887 -3.183480
v 1.673557 9.929857 0.000000
vn 0.264164 3.129767 -3.099491
v 1.850309 11.922052 0.000000
vn -0.393661 -3.116135 -3.183483
v 2.506665 9.842295 0.000000
vn 0.395663 3.115875 -3.099489
v 2.771363 11.824747 0.000000
vn -0.523806 -3.096917 -3.183478
v 3.335375 9.719920 0.000000
vn 0.526459 3.096461 -3.099492
v 3.687506 11.688760 0.000000
vn -0.653029 -3.072267 -3.183481
v 4.158234 9.562952 0.000000
vn 0.656322 3.071558 -3.099489
v 4.597114 11.514334 0.000000
vn -0.781111 -3.042225 -3.183480
v 4.973798 9.371663 0.000000
vn 0.785021 3.041212 -3.099492
v 5.498573 11.301776 0.000000
vn -0.907820 -3.006847 -3.183481
v 5.780636 9.146390 0.000000
vn 0.912327 3.005476 -3.099490
v 6.390287 11.051466 0.000000
vn -1.032938 -2.966194 -3.183481
v 6.577333 8.887527 0.000000
vn 1.038020 2.964412 -3.099489
v 7.270676 10.763845 0.000000
vn -1.156243 -2.920338 -3.183480
v 7.362491 8.595530 0.000000
vn 1.161871 2.918096 -3.099492
v 8.138179 10.439424 0.000000
vn -1.277520 -2.869357 -3.183481
v 8.134733 8.270909 0.000000
vn 1.283664 2.866607 -3.099489
v 8.991258 10.078777 0.000000
vn -1.396557 -2.813343 -3.183481
v 8.892704 7.914235 0.000000
vn 1.403182 2.810037 -3.099491
v 9.828401 9.682544 0.000000
vn -1.513142 -2.752394 -3.183480
v 9.635073 7.526134 0.000000
vn 1.520211 2.748487 -3.099490
v 10.648125 9.251427 0.000000
vn -1.627071 -2.686616 -3.183481
v 10.360539 7.107285 0.000000
vn 1.634547 2.682066 -3.099491
v 11.448977 8.786189 0.000000
vn -1.738149 -2.616124 -3.183481
v 11.067831 6.658425 0.000000
vn 1.745986 2.610893 -3.099491
v 12.229538 8.287657 0.000000
vn -1.846176 -2.541044 -3.183480
v 11.755705 6.180340 0.000000
vn 1.854331 2.535090 -3.099489
v 12.988424 7.756713 0.000000
vn -1.950964 -2.461506 -3.183480
v 12.422956 5.673869 0.000000
vn 1.959390 2.454795 -3.099491
v 13.724290 7.194297 0.000000
vn -2.052330 -2.377648 -3.183482
v 13.068413 5.139901 0.000000
vn 2.060975 2.370150 -3.099490
v 14.435832 6.601408 0.000000
vn -2.150096 -2.289618 -3.183480
v 13.690942 4.579373 0.000000
vn 2.158907 2.281303 -3.099491
v 15.121789 5.979095 0.000000
vn -2.244089 -2.197575 -3.183480
v 14.289454 3.993267 0.000000
vn 2.253014 2.188414 -3.099490
v 15.780945 5.328463 0.000000
vn -2.334145 -2.101674 -3.183481
v 14.862897 3.382612 0.000000
vn 2.343128 2.091645 -3.099490
v 16.412132 4.650662 0.000000
vn -2.420107 -2.002086 -3.183481
v 15.410265 2.748480 0.000000
vn 2.429087 1.991171 -3.099492
v 17.014231 3.946897 0.000000
vn -2.501824 -1.898986 -3.183482
v 15.930598 2.091982 0.000000
vn 2.510743 1.887167 -3.099489
v 17.586176 3.218413 0.000000
vn -2.579150 -1.792556 -3.183478
v 16.422983 1.414271 0.000000
vn 2.587949 1.779816 -3.099490
v 18.126951 2.466501 0.000000
vn -2.651950 -1.682982 -3.183481
v 16.886559 0.716536 0.000000
vn 2.660568 1.669313 -3.099491
v 18.635599 1.692494 0.000000
vn -0.639610 -2.217922 -1.650616
v 17.320509 -0.000000 0.000000
vn 2.051849 -0.597557 -1.496227
v 19.111219 0.897764 0.000000
vn -0.639609 -2.217921 1.650617
v 17.320509 -0.000000 25.000000
vn 2.051848 -0.597557 1.496228
v 19.111219 0.897764 25.000000
vn -2.651950 -1.682982 3.183481
v 16.886559 0.716536 25.000000
vn 2.660568 1.669313 3.099492
v 18.635599 1.692494 25.000000
vn -2.579150 -1.792556 3.183479
v 16.422983 1.414271 25.000000
vn 2.587949 1.779816 3.099490
v 18.126951 2.466501 25.000000
vn -2.501824 -1.898986 3.183481
v 15.930598 2.091982 25.000000
vn 2.510743 1.887167 3.099490
v 17.586176 3.218413 25.000000
vn -2.420107 -2.002086 3.183481
v 15.410265 2.748480 25.000000
vn 2.429087 1.991171 3.099492
v 17.014231 3.946897 25.000000
vn -2.334145 -2.101674 3.183481
v 14.862897 3.382612 25.000000
vn 2.343127 2.091645 3.099490
v 16.412132 4.650662 25.000000
vn -2.244089 -2.197575 3.183480
v 14.289454 3.993267 25.000000
vn 2.253014 2.188414 3.099491
v 15.780945 5.328463 25.000000
vn -2.150096 -2.289619 3.183480
v 13.690942 4.579373 25.000000
vn 2.158907 2.281304 3.099490
v 15.121789 5.979095 25.000000
vn -2.052330 -2.377648 3.183482
v 13.068413 5.139901 25.000000
vn 2.060975 2.370150 3.099490
v 14.435832 6.601408 25.000000
vn -1.950964 -2.461506 3.183480
v 12.422956 5.673869 25.000000
vn 1.959390 2.454794 3.099491
v 13.724290 7.194297 25.000000
vn -1.846176 -2.541043 3.183480
v 11.755705 6.180340 25.000000
vn 1.854331 2.535090 3.099489
v 12.988424 7.756713 25.000000
vn -1.738149 -2.616124 3.183481
v 11.067831 6.658425 25.000000
vn 1.745986 2.610893 3.099491
v 12.229538 8.287657 25.000000
vn -1.627071 -2.686616 3.183481
v 10.360539 7.107285 25.000000
vn 1.634547 2.682066 3.099491
v 11.448977 8.786189 25.000000
vn -1.513142 -2.752394 3.183480
v 9.635073 7.526134 25.000000
vn 1.520211 2.748487 3.099490
v 10.648125 9.251427 25.000000
vn -1.396557 -2.813343 3.183481
v 8.892704 7.914235 25.000000
vn 1.403182 2.810037 3.099491
v 9.828401 9.682544 25.000000
vn -1.277520 -2.869357 3.183481
v 8.134733 8.270909 25.000000
vn 1.283664 2.866607 3.099489
v 8.991258 10.078777 25.000000
vn -1.156243 -2.920337 3.183480
v 7.362491 8.595530 25.000000
vn 1.161871 2.918096 3.099492
v 8.138179 10.439424 25.000000
vn -1.032938 -2.966194 3.183481
v 6.577333 8.887527 25.000000
vn 1.038020 2.964412 3.099489
v 7.270676 10.763845 25.000000
vn -0.907820 -3.006847 3.183481
v 5.780636 9.146390 25.000000
vn 0.912327 3.005476 3.099491
v 6.390287 11.051466 25.000000
vn -0.781111 -3.042225 3.183480
v 4.973798 9.371663 25.000000
vn 0.785021 3.041212 3.099492
v 5.498573 11.301776 25.000000
vn -0.653030 -3.072267 3.183481
v 4.158234 9.562952 25.000000
vn 0.656322 3.071558 3.099489
v 4.597114 11.514334 25.000000
vn -0.523806 -3.096917 3.183478
v 3.335375 9.719920 25.000000
vn 0.526459 3.096460 3.099492
v 3.687506 11.688760 25.000000
vn -0.393661 -3.116135 3.183483
v 2.506665 9.842295 25.000000
vn 0.395663 3.115875 3.099489
v 2.771363 11.824747 25.000000
vn -0.262822 -3.129887 3.183480
v 1.673557 9.929857 25.000000
vn 0.264164 3.129767 3.099491
v 1.850309 11.922052 25.000000
vn -0.131527 -3.138147 3.183479
v 0.837513 9.982456 25.000000
vn 0.132199 3.138113 3.099489
v 0.925975 11.980505 25.000000
vn -1.603693 -1.570452 1.591741
v -0.000000 10.000000 25.000000
vn -1.537733 1.570448 1.549746
v -0.000000 12.000000 25.000000
# 104 vertices, 0 vertices normals

f 1//1 2//2 3//3
f 2//2 4//4 3//3
f 3//3 4//4 5//5
f 4//4 6//6 5//5
f 5//5 6//6 7//7
f 6//6 8//8 7//7
f 7//7 8//8 9//9
f 8//8 10//10 9//9
f 9//9 10//10 11//11
f 10//10 12//12 11//11
f 11//11 12//12 13//13
f 12//12 14//14 13//13
f 13//13 14//14 15//15
f 14//14 16//16 15//15
f 15//15 16//16 17//17
f 16//16 18//18 17//17
f 17//17 18//18 19//19
f 18//18 20//20 19//19
f 19//19 20//20 21//21
f 20//20 22//22 21//21
f 21//21 22//22 23//23
f 22//22 24//24 23//23
f 23//23 24//24 25//25
f 24//24 26//26 25//25
f 25//25 26//26 27//27
f 26//26 28//28 27//27
f 27//27 28//28 29//29
f 28//28 30//30 29//29
f 29//29 30//30 31//31
f 30//30 32//32 31//31
f 31//31 32//32 33//33
f 32//32 34//34 33//33
f 33//33 34//34 35//35
f 34//34 36//36 35//35
f 35//35 36//36 37//37
f 36//36 38//38 37//37
f 37//37 38//38 39//39
f 38//38 40//40 39//39
f 39//39 40//40 41//41
f 40//40 42//42 41//41
f 41//41 42//42 43//43
f 42//42 44//44 43//43
f 43//43 44//44 45//45
f 44//44 46//46 45//45
f 45//45 46//46 47//47
f 46//46 48//48 47//47
f 47//47 48//48 49//49
f 48//48 50//50 49//49
f 49//49 50//50 51//51
f 50//50 52//52 51//51
f 53//53 54//54 55//55
f 54//54 56//56 55//55
f 55//55 56//56 57//57
f 56//56 58//58 57//57
f 57//57 58//58 59//59
f 58//58 60//60 59//59
f 59//59 60//60 61//61
f 60//60 62//62 61//61
f 61//61 62//62 63//63
f 62//62 64//64 63//63
f 63//63 64//64 65//65
f 64//64 66//66 65//65
f 65//65 66//66 67//67
f 66//66 68//68 67//67
f 67//67 68//68 69//69
f 68//68 70//70 69//69
f 69//69 70//70 71//71
f 70//70 72//72 71//71
f 71//71 72//72 73//73
f 72//72 74//74 73//73
f 73//73 74//74 75//75
f 74//74 76//76 75//75
f 75//75 76//76 77//77
f 76//76 78//78 77//77
f 77//77 78//78 79//79
f 78//78 80//80 79//79
f 79//79 80//80 81//81
f 80//80 82//82 81//81
f 81//81 82//82 83//83
f 82//82 84//84 83//83
f 83//83 84//84 85//85
f 84//84 86//86 85//85
f 85//85 86//86 87//87
f 86//86 88//88 87//87
f 87//87 88//88 89//89
f 88//88 90//90 89//89
f 89//89 90//90 91//91
f 90//90 92//92 91//91
f 91//91 92//92 93//93
f 92//92 94//94 93//93
f 93//93 94//94 95//95
f 94//94 96//96 95//95
f 95//95 96//96 97//97
f 96//96 98//98 97//97
f 97//97 98//98 99//99
f 98//98 100//100 99//99
f 99//99 100//100 101//101
f 100//100 102//102 101//101
f 101//101 102//102 103//103
f 102//102 104//104 103//103
f 54//54 52//52 50//50
f 54//54 50//50 56//56
f 50//50 48//48 56//56
f 56//56 48//48 58//58
f 48//48 46//46 58//58
f 58//58 46//46 60//60
f 46//46 44//44 60//60
f 60//60 44//44 62//62
f 44//44 42//42 62//62
f 62//62 42//42 64//64
f 42//42 40//40 64//64
f 64//64 40//40 66//66
f 40//40 38//38 66//66
f 66//66 38//38 68//68
f 38//38 36//36 68//68
f 68//68 36//36 70//70
f 36//36 34//34 70//70
f 70//70 34//34 72//72
f 34//34 32//32 72//72
f 72//72 32//32 74//74
f 32//32 30//30 74//74
f 74//74 30//30 76//76
f 30//30 28//28 76//76
f 76//76 28//28 78//78
f 28//28 26//26 78//78
f 78//78 26//26 80//80
f 26//26 24//24 80//80
f 80//80 24//24 82//82
f 24//24 22//22 82//82
f 82//82 22//22 84//84
f 22//22 20//20 84//84
f 84//84 20//20 86//86
f 20//20 18//18 86//86
f 86//86 18//18 88//88
f 18//18 16//16 88//88
f 88//88 16//16 90//90
f 16//16 14//14 90//90
f 90//90 14//14 92//92
f 14//14 12//12 92//92
f 92//92 12//12 94//94
f 12//12 10//10 94//94
f 94//94 10//10 96//96
f 10//10 8//8 96//96
f 96//96 8//8 98//98
f 8//8 6//6 98//98
f 98//98 6//6 100//100
f 6//6 4//4 100//100
f 100//100 4//4 102//102
f 4//4 2//2 102//102
f 102//102 2//2 104//104
f 54//54 53//53 52//52
f 53//53 51//51 52//52
f 103//103 104//104 1//1
f 104//104 2//2 1//1
f 103//103 1//1 101//101
f 1//1 3//3 101//101
f 101//101 3//3 99//99
f 3//3 5//5 99//99
f 99//99 5//5 97//97
f 5//5 7//7 97//97
f 97//97 7//7 95//95
f 7//7 9//9 95//95
f 95//95 9//9 93//93
f 9//9 11//11 93//93
f 93//93 11//11 91//91
f 11//11 13//13 91//91
f 91//91 13//13 89//89
f 13//13 15//15 89//89
f 89//89 15//15 87//87
f 15//15 17//17 87//87
f 87//87 17//17 85//85
f 17//17 19//19 85//85
f 85//85 19//19 83//83
f 19//19 21//21 83//83
f 83//83 21//21 81//81
f 21//21 23//23 81//81
f 81//81 23//23 79//79
f 23//23 25//25 79//79
f 79//79 25//25 77//77
f 25//25 27//27 77//77
f 77//77 27//27 75//75
f 27//27 29//29 75//75
f 75//75 29//29 73//73
f 29//29 31//31 73//73
f 73//73 31//31 71//71
f 31//31 33//33 71//71
f 71//71 33//33 69//69
f 33//33 35//35 69//69
f 69//69 35//35 67//67
f 35//35 37//37 67//67
f 67//67 37//37 65//65
f 37//37 39//39 65//65
f 65//65 39//39 63//63
f 39//39 41//41 63//63
f 63//63 41//41 61//61
f 41//41 43//43 61//61
f 61//61 43//43 59//59
f 43//43 45//45 59//59
f 59//59 45//45 57//57
f 45//45 47//47 57//57
f 57//57 47//47 55//55
f 47//47 49//49 55//55
f 55//55 49//49 53//53
f 49//49 51//51 53//53
# 204 faces, 0 coords texture

# End of File
